name Walk10.mot
datacolumns 19
datarows 12
range 1.49000000 1.50100000
endheader

                time	   L_ground_force_vx	   L_ground_force_vy	   L_ground_force_vz	   L_ground_force_px	   L_ground_force_py	   L_ground_force_pz	   R_ground_force_vx	   R_ground_force_vy	   R_ground_force_vz	   R_ground_force_px	   R_ground_force_py	   R_ground_force_pz	   L_ground_torque_x	   L_ground_torque_y	   L_ground_torque_z	   R_ground_torque_x	   R_ground_torque_y	   R_ground_torque_z	
          1.49000000	         -0.11687864	          0.79433455	         -0.06788337	          0.00058923	          0.00000000	          0.00041426	         35.04205671	        694.68724427	         -8.14428139	         -0.10638887	          0.00000000	          0.37974006	          0.00000000	         -0.00076835	          0.00000000	          0.00000000	         -0.04070222	          0.00000000	
          1.49100000	         -0.12069057	          0.79418145	         -0.06577268	          0.00057368	          0.00000000	          0.00040191	         35.69078340	        696.90923276	         -8.05698873	         -0.10608197	          0.00000000	          0.37969260	          0.00000000	         -0.00080477	          0.00000000	          0.00000000	         -0.05577411	          0.00000000	
          1.49200000	         -0.12435828	          0.79073423	         -0.06319423	          0.00055432	          0.00000000	          0.00038675	         36.34821205	        699.10734555	         -7.97405182	         -0.10577760	          0.00000000	          0.37964477	          0.00000000	         -0.00084125	          0.00000000	          0.00000000	         -0.07099700	          0.00000000	
          1.49300000	         -0.12785322	          0.78370101	         -0.06011518	          0.00053087	          0.00000000	          0.00036858	         37.01428712	        701.28076686	         -7.89532493	         -0.10547571	          0.00000000	          0.37959655	          0.00000000	         -0.00087764	          0.00000000	          0.00000000	         -0.08634837	          0.00000000	
          1.49400000	         -0.13114491	          0.77277762	         -0.05650174	          0.00050305	          0.00000000	          0.00034720	         37.68895579	        703.42871103	         -7.82064062	         -0.10517628	          0.00000000	          0.37954795	          0.00000000	         -0.00091379	          0.00000000	          0.00000000	         -0.10180372	          0.00000000	
          1.49500000	         -0.13420087	          0.75764767	         -0.05231917	          0.00047056	          0.00000000	          0.00032240	         38.37216830	        705.55042303	         -7.74981039	         -0.10487928	          0.00000000	          0.37949896	          0.00000000	         -0.00094953	          0.00000000	          0.00000000	         -0.11733655	          0.00000000	
          1.49600000	         -0.13698656	          0.73798276	         -0.04753187	          0.00043311	          0.00000000	          0.00029397	         39.06387802	        707.64517858	         -7.68262525	         -0.10458472	          0.00000000	          0.37944957	          0.00000000	         -0.00098466	          0.00000000	          0.00000000	         -0.13291829	          0.00000000	
          1.49700000	         -0.13946537	          0.71344268	         -0.04210340	          0.00039040	          0.00000000	          0.00026168	         39.76404143	        709.71228392	         -7.61885634	         -0.10429258	          0.00000000	          0.37939977	          0.00000000	         -0.00101899	          0.00000000	          0.00000000	         -0.14851801	          0.00000000	
          1.49800000	         -0.14159854	          0.68367575	         -0.03599661	          0.00034210	          0.00000000	          0.00022531	         40.47261807	        711.75107510	         -7.55825561	         -0.10400287	          0.00000000	          0.37934956	          0.00000000	         -0.00105231	          0.00000000	          0.00000000	         -0.16410201	          0.00000000	
          1.49900000	         -0.14334515	          0.64831922	         -0.02917368	          0.00028790	          0.00000000	          0.00018462	         41.18957033	        713.76091702	         -7.50055676	         -0.10371562	          0.00000000	          0.37929893	          0.00000000	         -0.00108437	          0.00000000	          0.00000000	         -0.17963339	          0.00000000	
          1.50000000	         -0.14466206	          0.60699968	         -0.02159625	          0.00022748	          0.00000000	          0.00013940	         41.91486318	        715.74120229	         -7.44547656	         -0.10343084	          0.00000000	          0.37924788	          0.00000000	         -0.00111494	          0.00000000	          0.00000000	         -0.19507182	          0.00000000	
          1.50100000	         -0.14550390	          0.55933366	         -0.01322549	          0.00016050	          0.00000000	          0.00008939	         42.64846391	        717.69135008	         -7.39271672	         -0.10314856	          0.00000000	          0.37919638	          0.00000000	         -0.00114374	          0.00000000	          0.00000000	         -0.21037353	          0.00000000	
